<svg viewBox="0 0 159 22" xmlns="http://www.w3.org/2000/svg" fill-rule="evenodd" clip-rule="evenodd">
  <path d="M109.395 19.352c4.69 0 8.57-3.223 8.57-8.693 0-4.79-3.32-8.36-8.375-8.36-4.908 0-8.546 3.59-8.546 8.72 0 4.78 3.418 8.32 8.327 8.32h.03z" fill="none" stroke="#000" stroke-width="1.12"/>
  <path fill="#B60050" fill-rule="nonzero" d="M105.343 6.667h8.324v8.324h-8.324z"/>
  <path d="M10.587 15.615l1.14 4.14h5.175L11.57 1.87H5.2L0 19.755h4.962l1.008-4.14h4.617zm-3.98-3.555l.77-3.184c.265-1.01.53-2.495.795-3.556h.054c.265 1.06.61 2.52.875 3.53l.83 3.21H6.61zm13.372 7.694h4.75V13.04h.76c1.48 0 2.15.452 2.62 2.602.53 2.202.98 3.582 1.24 4.112h4.91c-.35-.69-.93-3.29-1.49-5.12-.45-1.54-1.087-2.68-2.28-3.185v-.11c1.406-.51 3.08-2.1 3.08-4.33 0-1.75-.638-3.03-1.78-3.9-1.35-1.01-3.315-1.38-6.05-1.38-2.386 0-4.43.16-5.78.37v17.65zm4.75-14.38c.23-.054.71-.107 1.61-.107 1.59.027 2.47.77 2.47 2.123 0 1.326-1.04 2.23-2.84 2.23h-1.24V5.372zm12.41 14.38h4.75V14.34l1.43-1.83 3.77 7.244h5.54L46.75 9.486l5.68-7.615h-5.89L43.116 7.5c-.398.637-.796 1.3-1.168 1.963h-.053V1.87h-4.75v17.884zm17.93 0h4.8V1.87h-4.8v17.884zm12.36 0h4.8V5.877h4.64V1.87h-14v4.007h4.56v13.877zm28.57 0h1.25L96.05 1.87h-1.513l-3.98 10.322c-.903 2.388-1.54 4.14-2.017 5.784h-.053c-.504-1.724-1.14-3.528-1.963-5.81L82.676 1.87h-1.46l-1.3 17.884h1.248l.557-8.225c.22-2.98.35-6.08.38-8.18h.08c.53 1.96 1.3 4.11 2.31 6.9l3.53 9.5h.88l3.77-9.74c1.01-2.66 1.75-4.73 2.39-6.66h.08c-.02 1.93.19 5.22.37 7.9l.53 8.49zm25.66-.026c.69.08 1.72.16 3.1.16 2.52 0 4.456-.48 5.624-1.7.82-.848 1.324-1.963 1.324-3.422 0-2.92-2.28-4.22-3.765-4.564v-.053c1.78-.64 3.08-2.18 3.08-4.01 0-1.25-.37-2.21-1.088-2.95-1.01-.98-2.47-1.46-4.698-1.46-1.33 0-2.6.13-3.58.37v17.62zm1.24-16.743c.4-.106 1.09-.186 2.282-.186 2.652 0 4.536.9 4.536 3.42 0 1.99-1.62 3.5-4.19 3.5h-2.63V2.98zm0 7.774h2.256c2.84 0 5.254 1.22 5.254 4.03 0 3.05-2.57 4.03-5.303 4.03-.93 0-1.673-.03-2.204-.14v-7.93zm21.36-.96h-7.16V2.93h7.59V1.87h-8.834v17.88h9.26v-1.06h-8.01v-7.826h7.164v-1.06zm4.75 9.95h9.233v-1.06h-7.987V1.87h-1.25v17.884z" fill-rule="nonzero"/>
</svg>
