<svg viewBox="0 0 438 168" xmlns="http://www.w3.org/2000/svg" fill-rule="evenodd" clip-rule="evenodd" stroke-linejoin="round" stroke-miterlimit="1.414">
  <path fill="#9C2E83" fill-rule="nonzero" d="M0 0h438v168H0z"/>
  <path d="M74.636 29.385l-51.334 30.22h99.355l-48.02-30.22zm-38.914 85.28v-55.06h75.343v26.08l-75.343 28.98z" fill="#A9D051" fill-rule="nonzero"/>
  <path d="M35.723 114.664l75.343 21.734v-26.91L84.63 95.853l-48.907 18.81z" fill="#fff" fill-rule="nonzero"/>
  <path d="M35.722 114.664l48.906-18.81 13.52 6.973-62.426 11.837z" fill="#A4A8AE" fill-rule="nonzero"/>
  <g fill-rule="nonzero">
    <path d="M139.702 85.656h3.678c3.296 0 4.944-1.99 4.944-5.97 0-2.05-.402-3.496-1.206-4.34-.804-.844-1.85-1.266-3.135-1.266h-4.28v11.576zm0 19.656h4.823c3.095 0 4.643-2.39 4.643-7.175 0-.884-.07-1.708-.21-2.472-.142-.763-.393-1.437-.755-2.02-.36-.582-.854-1.045-1.477-1.386-.623-.35-1.397-.52-2.32-.52H139.7v13.56zm-8.08-32.98c0-1.528.352-2.634 1.055-3.317.704-.683 1.8-1.025 3.286-1.025h10.854c1.728 0 3.205.27 4.43.814 1.227.543 2.222 1.296 2.986 2.26.763.966 1.316 2.142 1.658 3.528.35 1.387.52 2.925.52 4.613 0 2.17-.4 4.06-1.2 5.668-.8 1.607-1.91 2.693-3.31 3.255 2.21.804 3.72 2.07 4.53 3.8.81 1.727 1.21 3.737 1.21 6.028 0 1.77-.19 3.467-.57 5.095-.38 1.63-1.01 3.06-1.9 4.29-.88 1.23-2.04 2.21-3.47 2.96-1.42.75-3.18 1.12-5.27 1.12H136c-1.49 0-2.586-.34-3.29-1.02-.7-.68-1.054-1.79-1.054-3.32V72.33zm31.173 9.646c0-1.206.27-2.17.814-2.894.54-.723 1.41-1.085 2.62-1.085 1.2 0 2.08.36 2.62 1.08.54.72.81 1.69.81 2.89v3.07h.12c.56-2.05 1.29-3.74 2.2-5.07.9-1.33 2-1.99 3.29-1.99 1 0 1.86.37 2.56 1.11.7.74 1.05 1.96 1.05 3.65 0 1.12-.33 2.14-1 3.04-.67.9-1.86 1.35-3.59 1.35-1.17 0-2.15.38-2.96 1.14-.81.76-1.21 1.86-1.21 3.31v16.16c0 1.53-.33 2.64-1 3.34-.67.7-1.56 1.05-2.68 1.05s-2.02-.35-2.68-1.06c-.67-.7-1-1.82-1-3.35v-25.8zm19.835-10.792c0-1.166.413-2.16 1.237-2.985.825-.82 1.82-1.23 2.985-1.23 1.166 0 2.16.41 2.985 1.24.824.83 1.236 1.82 1.236 2.99 0 1.17-.412 2.16-1.236 2.99-.824.83-1.82 1.24-2.985 1.24-1.166 0-2.16-.41-2.985-1.24-.824-.82-1.236-1.82-1.236-2.98zm.544 11.214c0-1.527.332-2.642.995-3.346.66-.703 1.55-1.055 2.68-1.055 1.12 0 2.02.35 2.68 1.05.66.7.99 1.82.99 3.34v25.38c0 1.53-.34 2.64-1 3.34-.67.7-1.56 1.05-2.69 1.05s-2.02-.35-2.69-1.06c-.67-.71-1-1.82-1-3.35V82.4zm13.446 9.708c0-1.97.1-3.81.3-5.517.202-1.7.675-3.19 1.418-4.46.744-1.26 1.83-2.27 3.256-3.01 1.426-.75 3.366-1.12 5.818-1.12 2.09 0 3.8.32 5.126.97 1.326.65 2.37 1.44 3.135 2.38.764.95 1.276 1.93 1.537 2.96.262 1.03.392 1.9.392 2.63 0 1.45-.34 2.5-1.025 3.17-.683.67-1.547 1-2.592 1-1.247 0-2.18-.31-2.804-.93-.62-.62-.93-1.7-.93-3.22 0-1.04-.26-1.83-.78-2.35s-1.18-.78-1.99-.78c-.72 0-1.29.19-1.72.58-.42.38-.74.93-.96 1.63-.22.7-.35 1.52-.39 2.44-.04.93-.06 1.93-.06 3.02v7.23c0 2.74.23 4.71.69 5.91.47 1.21 1.28 1.81 2.45 1.81.69 0 1.31-.23 1.87-.69.56-.46.87-1.33.91-2.62.08-2.09.44-3.492 1.06-4.22.63-.72 1.52-1.08 2.69-1.08 1.09 0 1.96.37 2.63 1.113.66.745 1 1.8 1 3.166 0 .8-.12 1.79-.36 2.954-.24 1.17-.73 2.285-1.47 3.35s-1.78 1.97-3.1 2.714c-1.32.74-3.07 1.11-5.24 1.11-2.45 0-4.39-.377-5.82-1.12-1.424-.74-2.51-1.75-3.253-3.01-.745-1.27-1.22-2.756-1.42-4.464-.2-1.71-.3-3.55-.3-5.52v-5.97zm32.862 6.812c0 1.53.06 2.775.18 3.74.12.964.322 1.718.604 2.26.28.543.633.925 1.055 1.146.43.22.94.332 1.54.332s1.12-.11 1.54-.332c.42-.22.78-.603 1.06-1.146.28-.542.49-1.296.61-2.26.12-.965.18-2.21.18-3.74v-7.777c0-1.487-.07-2.703-.21-3.648-.14-.944-.36-1.688-.66-2.23-.3-.543-.66-.925-1.08-1.146-.42-.23-.89-.34-1.41-.34-.56 0-1.04.11-1.44.33-.4.22-.75.6-1.05 1.14-.3.54-.52 1.28-.66 2.23-.14.94-.21 2.16-.21 3.65v7.77zm-7.718-8.26c0-1.728.16-3.366.482-4.913.322-1.548.905-2.894 1.75-4.04.843-1.146 1.98-2.05 3.406-2.713 1.427-.663 3.245-.995 5.456-.995 2.21 0 4.03.33 5.457.99 1.427.66 2.562 1.56 3.407 2.71.844 1.14 1.426 2.49 1.748 4.04.322 1.54.482 3.18.482 4.91v8.86c0 1.77-.16 3.41-.482 4.94-.322 1.53-.904 2.86-1.748 4.01-.845 1.14-1.98 2.05-3.407 2.71-1.427.66-3.246.99-5.457.99-2.21 0-4.03-.33-5.456-1-1.427-.67-2.563-1.57-3.407-2.72-.844-1.15-1.427-2.48-1.75-4.01-.32-1.53-.48-3.18-.48-4.95v-8.86z" fill="#fff"/>
    <path d="M249.5 71.608c0-1.528.33-2.643.994-3.347.664-.7 1.558-1.05 2.683-1.05 1.126 0 2.02.35 2.684 1.06.67.71 1 1.82 1 3.35v10.61h.12c.61-1.4 1.55-2.46 2.84-3.16 1.29-.7 2.64-1.05 4.04-1.05 2.05 0 3.74.65 5.07 1.96s1.99 3.35 1.99 6.12v21.7c0 1.53-.33 2.65-.99 3.35-.66.71-1.56 1.06-2.68 1.06s-2.02-.35-2.68-1.06c-.66-.7-.99-1.82-.99-3.34V87.83c0-1.206-.27-2.08-.81-2.623-.54-.543-1.21-.814-2.02-.814-1.16 0-2.1.462-2.8 1.387-.7.924-1.05 2.412-1.05 4.462v17.542c0 1.528-.33 2.643-.99 3.347-.66.71-1.56 1.06-2.68 1.06s-2.02-.35-2.68-1.05c-.66-.7-.99-1.81-.99-3.34V71.61zm41.12 22.912l-2.592 1.808c-.804.563-1.457 1.076-1.96 1.538-.502.462-.894.925-1.176 1.387-.28.462-.472.954-.572 1.477-.1.523-.15 1.125-.15 1.81 0 1.245.23 2.2.692 2.863.462.663 1.096.995 1.9.995 1.205 0 2.15-.583 2.833-1.75.684-1.165 1.025-2.612 1.025-4.34V94.52zm7.356 9.888c0 1.045.07 1.99.21 2.834.142.844.212 1.527.212 2.05 0 1.93-1.226 2.894-3.678 2.894-1.005 0-1.9-.29-2.683-.874-.784-.583-1.175-1.68-1.175-3.286l-.12.06c-.684 1.487-1.64 2.542-2.865 3.165-1.226.63-2.502.94-3.83.94-1.084 0-2.09-.17-3.013-.51-.925-.34-1.73-.86-2.412-1.56-.684-.7-1.216-1.61-1.598-2.71-.382-1.1-.573-2.42-.573-3.95 0-2.49.4-4.49 1.18-6 .79-1.5 2.14-2.78 4.07-3.83l6.57-3.43c1.57-.8 2.35-1.95 2.35-3.43 0-.88-.24-1.65-.72-2.29-.48-.64-1.18-.96-2.11-.96-1.28 0-2.17.32-2.65.97s-.8 1.61-.96 2.9c-.08.73-.44 1.3-1.08 1.72-.64.42-1.45.63-2.41.63-.4 0-.83-.05-1.29-.15-.46-.1-.88-.27-1.26-.51s-.69-.55-.93-.93c-.24-.38-.36-.85-.36-1.41 0-1.4.27-2.65.82-3.73.55-1.09 1.28-1.99 2.2-2.71.93-.72 2.01-1.274 3.26-1.66 1.25-.38 2.57-.57 3.98-.57 2.45 0 4.4.25 5.85.755s2.54 1.2 3.29 2.08c.74.888 1.23 1.91 1.45 3.08.22 1.166.33 2.41.33 3.74v16.76zm13.868-6.27c0 2.33.25 4.24.754 5.727.502 1.488 1.477 2.23 2.924 2.23 1.367 0 2.22-.742 2.563-2.23.34-1.487.512-3.597.512-6.33v-4.282c0-1.808-.05-3.296-.15-4.46-.1-1.167-.272-2.102-.513-2.805-.24-.703-.563-1.196-.965-1.477-.41-.28-.91-.42-1.51-.42-.44 0-.88.1-1.3.3-.42.2-.81.6-1.15 1.18-.35.59-.63 1.39-.85 2.41-.22 1.03-.33 2.36-.33 4.01v6.15zm-7.356-26.53c0-1.528.332-2.643.995-3.347.663-.7 1.558-1.05 2.683-1.05 1.126 0 2.02.35 2.683 1.06.66.71.99 1.82.99 3.35V81.8h.12c.68-1.247 1.6-2.19 2.74-2.834 1.14-.643 2.4-.965 3.77-.965 1.65 0 2.98.35 4.01 1.06 1.02.71 1.82 1.64 2.38 2.81.56 1.17.94 2.51 1.14 4.04.2 1.53.3 3.14.3 4.83v8.75c0 1.69-.1 3.3-.31 4.83-.2 1.53-.58 2.87-1.15 4.04s-1.36 2.1-2.38 2.8c-1.03.71-2.37 1.06-4.01 1.06-1.41 0-2.68-.31-3.8-.93-1.13-.62-2.03-1.58-2.72-2.86h-.12c0 1.09-.35 1.99-1.03 2.72-.69.73-1.57 1.09-2.66 1.09-1.13 0-2.02-.35-2.68-1.05-.66-.7-1-1.82-1-3.35v-36.2zm27.374-.422c0-1.166.412-2.16 1.236-2.985.824-.82 1.82-1.23 2.984-1.23 1.166 0 2.16.41 2.985 1.24.824.83 1.236 1.82 1.236 2.99 0 1.17-.412 2.16-1.236 2.99-.824.83-1.82 1.24-2.985 1.24-1.165 0-2.16-.41-2.984-1.24-.824-.82-1.236-1.82-1.236-2.98zm.542 11.214c0-1.527.332-2.642.995-3.346.66-.703 1.55-1.055 2.68-1.055 1.12 0 2.02.35 2.68 1.05.66.7.99 1.82.99 3.34v25.38c0 1.53-.33 2.64-1 3.34-.67.7-1.56 1.05-2.69 1.05s-2.02-.35-2.69-1.06c-.67-.71-1-1.82-1-3.35V82.4zm14.953 1.87h-.783c-1.086 0-1.9-.2-2.442-.603-.543-.402-.814-1.106-.814-2.11 0-1.046.27-1.77.814-2.17.542-.403 1.356-.604 2.442-.604h.783v-5.608c0-1.527.332-2.643.995-3.346.664-.71 1.558-1.06 2.683-1.06 1.126 0 2.02.35 2.684 1.05.66.7.99 1.82.99 3.34v5.61h1.69c1.08 0 1.9.2 2.44.6.54.4.81 1.12.81 2.17 0 1-.27 1.71-.82 2.11-.55.4-1.36.6-2.44.6h-1.69v19.17c0 .68.12 1.21.36 1.6.24.38.78.61 1.62.69.84.04 1.51.24 1.99.6s.72 1.02.72 1.99c0 1.24-.38 2.13-1.15 2.65-.77.52-1.93.78-3.5.78-1.41 0-2.6-.17-3.56-.52-.97-.34-1.73-.8-2.29-1.36-.57-.57-.97-1.21-1.21-1.93-.24-.73-.37-1.47-.37-2.23V84.27zm28.037 10.25l-2.592 1.808c-.804.563-1.457 1.076-1.96 1.538-.502.462-.894.925-1.176 1.387-.28.462-.472.954-.572 1.477-.1.523-.15 1.125-.15 1.81 0 1.245.23 2.2.692 2.863.463.663 1.096.995 1.9.995 1.205 0 2.15-.583 2.833-1.75.68-1.165 1.02-2.612 1.02-4.34V94.52zm7.356 9.888c0 1.045.07 1.99.21 2.834.142.844.212 1.527.212 2.05 0 1.93-1.226 2.894-3.678 2.894-1.004 0-1.9-.29-2.683-.874-.78-.583-1.17-1.68-1.17-3.286l-.12.06c-.68 1.487-1.64 2.542-2.86 3.165-1.22.63-2.5.94-3.83.94-1.08 0-2.09-.17-3.01-.51-.92-.34-1.73-.86-2.41-1.56-.68-.7-1.21-1.61-1.6-2.71-.38-1.1-.57-2.42-.57-3.95 0-2.49.4-4.49 1.18-6 .79-1.5 2.14-2.78 4.07-3.83l6.58-3.43c1.57-.8 2.35-1.95 2.35-3.43 0-.88-.24-1.65-.72-2.29-.48-.64-1.19-.96-2.11-.96-1.29 0-2.17.32-2.65.97-.48.65-.8 1.61-.96 2.9-.08.73-.44 1.3-1.08 1.72-.64.42-1.44.63-2.41.63-.4 0-.83-.05-1.29-.15-.46-.1-.89-.27-1.27-.51s-.69-.55-.93-.93c-.24-.38-.36-.85-.36-1.41 0-1.4.27-2.65.81-3.73.55-1.09 1.28-1.99 2.2-2.71.93-.72 2.01-1.274 3.26-1.66 1.25-.38 2.57-.57 3.98-.57 2.45 0 4.4.25 5.85.755 1.45.506 2.54 1.2 3.29 2.08.74.888 1.22 1.91 1.44 3.08.22 1.166.33 2.41.33 3.74v16.76zm6.995-20.138h-.784c-1.08 0-1.9-.2-2.44-.603-.54-.402-.81-1.106-.81-2.11 0-1.046.27-1.77.82-2.17.54-.403 1.36-.604 2.44-.604h.79v-5.608c0-1.527.33-2.643 1-3.346.66-.71 1.56-1.06 2.68-1.06 1.13 0 2.02.35 2.69 1.05.67.7 1 1.82 1 3.34v5.61h1.69c1.09 0 1.9.2 2.44.6.54.4.82 1.12.82 2.17 0 1-.27 1.71-.81 2.11-.54.4-1.36.6-2.44.6h-1.69v19.17c0 .68.12 1.21.36 1.6.24.38.79.61 1.63.69.84.04 1.51.24 1.99.6s.72 1.02.72 1.99c0 1.24-.38 2.13-1.14 2.65s-1.93.78-3.5.78c-1.4 0-2.59-.17-3.55-.52-.96-.34-1.73-.8-2.29-1.36-.56-.57-.96-1.21-1.2-1.93-.24-.73-.36-1.47-.36-2.23V84.27z" fill="#A9D051"/>
  </g>
  <path d="M138.715 131.025c0 .323-.07.575-.213.756-.144.18-.396.27-.756.27-.334 0-.584-.1-.746-.31-.16-.21-.24-.47-.24-.78v-.35h-.038c-.547.97-1.38 1.46-2.497 1.46-.734 0-1.333-.15-1.8-.46-.464-.31-.83-.75-1.09-1.31-.26-.56-.44-1.24-.54-2.04-.1-.79-.148-1.67-.148-2.62v-1.36c0-1.13.077-2.09.233-2.88.154-.78.406-1.42.755-1.91.348-.48.788-.83 1.323-1.05.533-.22 1.186-.33 1.956-.33.67 0 1.245.1 1.723.29.48.2.87.45 1.175.76.304.31.53.66.68 1.05.148.4.223.78.223 1.17 0 .46-.097.83-.288 1.09-.193.27-.512.4-.96.4-.436 0-.74-.12-.913-.36-.175-.24-.285-.65-.336-1.24-.025-.28-.142-.55-.353-.8-.212-.24-.565-.37-1.063-.37-.223 0-.43.05-.614.13-.187.09-.352.26-.496.52-.14.26-.25.63-.325 1.11-.073.48-.112 1.1-.112 1.88v1.86c0 .82.022 1.52.065 2.09.044.58.125 1.04.243 1.4.12.37.285.63.503.8.217.168.5.25.848.25.546 0 .918-.25 1.118-.75.2-.5.3-1.16.3-1.98v-.76h-1.026c-.36 0-.618-.1-.774-.31-.156-.213-.234-.46-.234-.75 0-.37.097-.644.29-.81.192-.17.456-.253.79-.253h2.088c.45 0 .768.1.96.3.192.2.29.51.29.93v5.33zm1.695-8.31c0-.373.085-.672.253-.894.167-.22.438-.33.81-.33.373 0 .644.11.812.34.166.23.25.52.25.9v.95h.038c.174-.63.4-1.15.68-1.56.28-.41.617-.61 1.016-.61.31 0 .57.12.79.35.21.23.32.61.32 1.13 0 .35-.1.66-.31.94-.21.28-.58.42-1.11.42-.36 0-.67.12-.92.36s-.37.58-.37 1.03v4.99c0 .47-.11.82-.31 1.04-.21.22-.48.33-.83.33s-.63-.11-.83-.32c-.21-.22-.31-.56-.31-1.03v-7.97zm6.04.13c0-.47.102-.818.306-1.035.206-.216.48-.327.83-.327.347 0 .623.11.83.327.204.217.307.563.307 1.034v6.167c0 .38.073.65.223.82.15.17.367.25.652.25.397 0 .696-.14.894-.42.2-.28.3-.74.3-1.38v-5.42c0-.47.102-.81.306-1.03.206-.21.48-.32.83-.32.348 0 .625.11.828.33.206.22.307.57.307 1.04v7.85c0 .47-.1.82-.307 1.04-.203.22-.48.33-.828.33-.35 0-.624-.11-.83-.33-.204-.21-.307-.54-.307-.98h-.03c-.18.44-.48.76-.87.98-.4.22-.81.33-1.25.33-.63 0-1.15-.2-1.56-.6-.41-.41-.61-1.04-.61-1.9v-6.71zm8.55 0c0-.473.104-.818.31-1.034.205-.21.48-.32.828-.32.347 0 .625.11.83.33.204.22.307.56.307 1.04h.038c.2-.43.484-.77.856-1.01.37-.23.75-.35 1.15-.35.51 0 .92.11 1.24.33.31.22.56.51.73.87.17.36.29.78.35 1.25s.09.97.09 1.49v2.7c0 .52-.03 1.02-.1 1.49s-.18.89-.36 1.25-.42.65-.74.87c-.32.22-.73.33-1.24.33-.44 0-.83-.09-1.18-.28-.35-.18-.63-.47-.84-.85h-.04v3.4c0 .47-.11.82-.31 1.03-.21.22-.49.33-.83.33s-.63-.1-.83-.32c-.21-.22-.31-.56-.31-1.03V122.9zm2.275 4.955c0 .72.078 1.313.234 1.772.15.46.45.69.9.69.42 0 .68-.23.79-.69.1-.46.15-1.113.15-1.96V126.2c0-.56-.02-1.02-.05-1.38-.03-.36-.09-.65-.16-.867-.07-.216-.17-.37-.3-.457-.13-.085-.28-.13-.47-.13-.14 0-.27.032-.4.092-.13.062-.25.185-.36.365-.11.18-.19.43-.26.744-.07.316-.1.73-.1 1.242v1.99zm5.797-2.402c0-.534.048-1.04.147-1.518.1-.48.28-.896.54-1.25.26-.353.61-.634 1.05-.838.44-.205 1-.308 1.68-.308s1.24.103 1.68.308c.44.204.79.485 1.05.838.26.354.44.77.54 1.25.09.477.14.984.14 1.518v2.738c0 .548-.05 1.057-.15 1.53-.1.47-.28.883-.54 1.238-.26.354-.62.635-1.06.84-.44.204-1 .305-1.69.305s-1.25-.11-1.69-.31c-.44-.21-.79-.49-1.06-.84-.26-.36-.44-.77-.54-1.24-.1-.47-.15-.98-.15-1.53v-2.73zm2.384 2.552c0 .472.02.86.056 1.156.038.298.098.53.186.7.087.164.196.284.327.353.13.06.288.1.474.1s.34-.04.47-.1c.13-.07.24-.19.32-.36.08-.17.15-.4.18-.7.03-.3.05-.69.05-1.16v-2.41c0-.46-.02-.84-.07-1.13-.04-.3-.11-.53-.21-.69-.09-.17-.21-.29-.34-.36-.13-.07-.28-.11-.44-.11-.18 0-.33.03-.45.1-.13.07-.24.19-.33.35-.1.17-.16.4-.21.69-.05.29-.07.66-.07 1.12v2.4zm12.856 2.813c0 .398-.124.712-.372.94-.25.233-.54.347-.877.347-.334 0-.626-.114-.875-.346-.25-.23-.373-.543-.373-.94V119.73c0-.473.11-.814.326-1.024.22-.213.56-.318 1.02-.318h4.62c.47 0 .81.105 1.01.318.2.21.3.478.3.8 0 .324-.1.59-.3.802-.19.213-.53.316-1 .316h-3.47v3.094h3.47c.47 0 .81.106 1 .316.2.213.3.48.3.8 0 .325-.1.592-.3.8-.19.216-.53.32-1 .32h-3.47v4.807zm5.946-5.365c0-.534.048-1.04.147-1.518.1-.48.28-.896.54-1.25.263-.353.613-.634 1.054-.838.44-.205 1-.308 1.68-.308.68 0 1.24.103 1.68.308.44.204.79.485 1.05.838.26.354.44.77.54 1.25.1.477.15.984.15 1.518v2.738c0 .548-.05 1.057-.15 1.53-.1.47-.28.883-.54 1.238-.27.354-.62.635-1.06.84-.44.204-1 .305-1.69.305s-1.25-.11-1.69-.31c-.45-.21-.8-.49-1.06-.84-.26-.36-.44-.77-.54-1.24-.1-.47-.15-.98-.15-1.53v-2.73zm2.384 2.552c0 .472.02.86.056 1.156.038.298.098.53.186.7.087.164.196.284.327.353.14.06.29.1.48.1s.35-.04.48-.1c.13-.07.24-.19.33-.36.09-.17.15-.4.19-.7.04-.3.06-.69.06-1.16v-2.41c0-.46-.02-.84-.06-1.13-.04-.3-.11-.53-.2-.69-.09-.17-.2-.29-.33-.36s-.28-.11-.44-.11c-.17 0-.32.03-.44.1-.13.07-.23.19-.33.35-.09.17-.16.4-.2.69-.04.29-.06.66-.06 1.12v2.4zm6.018-5.235c0-.373.085-.672.253-.894.167-.22.438-.33.81-.33.372 0 .643.11.81.34.168.23.252.52.252.9v.95h.037c.175-.63.4-1.15.68-1.56.28-.41.618-.61 1.017-.61.3 0 .57.12.79.35.21.23.32.61.32 1.13 0 .35-.11.66-.31.94-.21.28-.58.42-1.11.42-.36 0-.67.12-.92.36s-.37.58-.37 1.03v4.99c0 .47-.11.82-.31 1.04-.21.22-.48.33-.83.33s-.63-.11-.83-.32c-.21-.22-.31-.56-.31-1.03v-7.97zm5.74 3c0-.646.034-1.23.103-1.75.068-.523.223-.967.465-1.335.243-.367.593-.65 1.053-.848.46-.2 1.08-.298 1.85-.298 1.18 0 2.01.333 2.47.998.47.665.7 1.655.7 2.972 0 .223-.01.433-.03.633s-.08.372-.17.52c-.09.15-.21.264-.38.347-.17.08-.39.12-.68.12h-2.98v1.025c0 .29.01.58.03.84.02.27.07.5.13.69.07.19.17.34.31.45.14.11.32.16.56.16.25 0 .45-.11.61-.32.16-.21.25-.45.26-.73.03-.5.14-.83.34-.98.2-.16.46-.24.79-.24.34 0 .62.07.83.22.22.15.33.44.33.89 0 .92-.28 1.63-.85 2.15-.56.52-1.31.77-2.24.77-.77 0-1.38-.1-1.84-.3-.46-.2-.81-.48-1.05-.85s-.39-.81-.46-1.34c-.07-.52-.1-1.11-.1-1.75v-2.1zm3.932-7.9c.136-.138.254-.223.354-.253.1-.03.223-.047.372-.047.2 0 .385.07.56.214.174.14.26.33.26.58 0 .17-.046.33-.14.47-.093.14-.202.27-.325.38l-1.473 1.36c-.1.1-.2.17-.307.22-.106.05-.226.07-.363.07-.25 0-.443-.08-.578-.23-.137-.16-.205-.36-.205-.59 0-.22.093-.43.28-.62l1.565-1.59zm.428 7.657v-.84c0-.384-.07-.707-.215-.968-.14-.26-.4-.39-.772-.39-.374 0-.63.13-.774.39-.15.26-.22.584-.22.97v.838h1.97zm4.9 1.398c-.32-.236-.583-.46-.782-.672-.198-.21-.354-.42-.466-.622-.112-.206-.185-.422-.222-.644-.038-.225-.057-.465-.057-.727 0-.906.288-1.588.866-2.04.57-.454 1.32-.68 2.24-.68.61 0 1.11.09 1.5.27.39.18.7.4.93.662.23.26.39.534.48.82.09.284.14.527.14.726 0 .335-.09.604-.26.81-.17.206-.49.307-.94.307-.59 0-.9-.29-.93-.875-.03-.348-.13-.607-.3-.772-.18-.17-.41-.253-.69-.253-.24 0-.43.07-.57.204-.15.137-.22.33-.22.58 0 .173.03.343.11.51.07.168.2.32.39.458l1.4 1.06c.35.262.66.508.93.74.27.228.5.46.68.696.18.237.32.488.41.754.09.268.14.57.14.905 0 .498-.08.928-.25 1.295-.17.368-.4.674-.7.923-.3.248-.65.435-1.06.56-.41.123-.84.185-1.3.185-.61 0-1.12-.09-1.52-.27-.4-.18-.73-.407-.96-.68-.24-.273-.4-.572-.5-.895-.1-.324-.15-.634-.15-.932 0-.434.11-.733.33-.894.22-.16.47-.25.74-.25.42 0 .72.11.89.34.17.23.27.58.31 1.05.02.21.1.4.24.57.13.16.38.25.74.25.6 0 .89-.31.89-.93 0-.25-.06-.46-.17-.64-.11-.17-.33-.39-.64-.63l-1.74-1.29zm111.23-83.082c7.625 0 14.574.75 20.844 2.245 6.27 1.497 11.654 3.277 16.143 5.344 4.49 2.067 7.964 4.204 10.422 6.414s3.68 4.03 3.68 5.46c0 1.21-.32 2.28-.96 3.21-.65.93-1.89 1.39-3.75 1.39-.93 0-2.44-.53-4.54-1.6-2.11-1.07-4.99-2.26-8.66-3.58-3.67-1.32-8.22-2.51-13.63-3.58-5.42-1.06-11.94-1.6-19.56-1.6-7.63 0-14.15.54-19.57 1.6-5.42 1.07-9.96 2.26-13.63 3.58-3.67 1.32-6.56 2.52-8.66 3.59-2.1 1.07-3.62 1.6-4.55 1.6-1.85 0-3.1-.46-3.74-1.38-.64-.92-.96-1.99-.96-3.2 0-1.43 1.23-3.24 3.69-5.45 2.45-2.21 5.93-4.35 10.42-6.41s9.87-3.85 16.14-5.34c6.27-1.49 13.22-2.24 20.84-2.24" fill="#fff" fill-rule="nonzero"/>
</svg>
