<svg viewBox="0 0 160 161" xmlns="http://www.w3.org/2000/svg" fill-rule="evenodd" clip-rule="evenodd" stroke-linejoin="round" stroke-miterlimit="1.414">
  <path fill="#E1D1AD" fill-rule="nonzero" d="M0 0h159.86v160.018H0z"/>
  <path d="M100.224 61.02v11.262h-.087c-.83-1.79-2.314-2.532-3.842-2.532-3.274 0-6.373 3.493-6.373 11 0 6.942 2.576 10.827 6.155 10.827 2.226 0 3.71-1.485 4.41-3.012h.13l.218 2.662h2.88c-.042-1.222-.173-3.623-.173-5.063V61.02h-3.318zm0 22.743c0 .524-.044 1.004-.13 1.397-.743 3.055-2.184 3.623-3.23 3.623-2.446 0-3.58-3.58-3.58-8.032 0-4.23.96-8.12 3.753-8.12 1.616 0 2.925 1.93 3.143 4.11.044.48.044.96.044 1.4v5.63zm17.155-2.794c.04-.53.04-1.1.04-1.88 0-4.8-1.7-9.34-6.03-9.34-4.24 0-7.12 4.27-7.12 11.13 0 6.46 2.62 10.6 7.68 10.6 1.66 0 3.45-.35 4.624-1.01l-.52-2.49c-.83.48-2.05.83-3.494.83-2.445 0-4.976-1.4-5.02-7.86h9.82zm-9.78-2.49c.13-2.88 1.26-6.11 3.45-6.11 1.61 0 3.23 1.87 3.14 6.11h-6.59zm8.99 11.78c.91.74 2.62 1.22 4.19 1.22 3.45 0 6.33-2.05 6.33-6.29 0-2.93-1.92-4.85-4.37-6.42-2.1-1.44-2.62-2.23-2.62-3.67 0-1.354.91-2.663 2.75-2.663 1.09 0 2.01.393 2.79.917l.91-2.53c-.874-.527-2.14-1.095-3.8-1.095-3.273 0-5.804 2.443-5.804 5.85 0 2.442 1.484 4.232 4.234 6.022 2.14 1.44 2.71 2.53 2.71 4.145 0 1.88-1.177 3.058-3.1 3.058-1.35 0-2.66-.61-3.403-1.09l-.83 2.53zm14.32-20.16h-3.36v21.12h3.36V70.1zm-1.75-7.64c-1.09 0-1.97.87-1.97 2.18s.83 2.18 1.92 2.18c1.262 0 2.092-.88 2.05-2.19 0-1.31-.788-2.18-2.01-2.18m16.107 14.23c0-3.23.14-5.1.18-6.59h-3.01l-.175 2.4h-.088c-.61-1.26-1.66-2.75-3.93-2.75-3.1 0-6.635 3.23-6.635 11 0 6.2 2.444 10.44 6.2 10.44 1.79 0 3.315-.92 4.06-2.578h.09v2.14c0 4.8-1.66 6.46-4.326 6.46-1.703 0-3.1-.48-3.93-.918l-.785 2.62c1.09.61 2.836 1.047 4.626 1.047 2.356 0 4.364-.83 5.63-2.27 1.397-1.525 2.095-3.62 2.095-9.164V76.69zm-3.31 6.81c0 .616-.044 1.27-.22 1.926-.697 2.53-2.007 3.012-3.01 3.012-2.05 0-3.755-2.45-3.755-7.86 0-4.67 1.31-7.948 3.753-7.948 1.92 0 2.66 1.79 3.053 3.232.13.435.175 1.003.175 1.527v6.11zm4.93 7.73h3.36V77.91c0-.7.046-1.353.13-1.877.44-2.27 1.79-3.45 3.19-3.45 2.444 0 2.924 2.53 2.924 5.02v13.62h3.36V77.04c0-5.107-2.18-7.29-5.102-7.29-2.226 0-3.93 1.18-4.845 2.88h-.09l-.173-2.53h-2.926c.046 1.702.18 2.968.18 5.456v15.67z" fill="#231F20" fill-rule="nonzero"/>
  <path d="M0 91.227h7.9v-12.66c0-.348.045-.916.176-1.265.393-.83 1.09-1.703 2.575-1.703 1.97 0 2.8 1.52 2.8 4.06v11.56h7.9V78.78c0-6.07-2.7-9.517-7.55-9.517-1.13 0-2.31.26-3.27.74S8.7 71.14 8 72.013h-.1V60.19H0v31.037zm42.212-12.485c0-5.37-2.576-9.472-9.953-9.472-4.46 0-7.56 1.222-8.91 1.964l1.35 4.933c1.44-.786 3.8-1.572 6.07-1.572 2.88 0 3.53.96 3.53 1.834v.17c-7.29 0-12.49 2.57-12.49 8.34 0 3.58 2.705 6.76 7.113 6.76 2.316 0 4.455-.66 5.94-2.36h.174l.394 1.87h7.115c-.22-1.09-.35-3.1-.35-5.24v-7.25zm-7.64 4.41c0 .392 0 .785-.087 1.134-.393 1.18-1.57 1.965-2.706 1.965-1.36 0-2.23-.69-2.23-2.05 0-1.92 1.79-2.79 5.02-2.79v1.75zm9.385 1.31c0 2.618-.087 5.368-.174 6.765h6.678l.31-2.75h.09c1.44 2.4 3.84 3.23 6.11 3.23 4.98 0 9.87-3.885 9.87-11.655.05-6.59-3.71-10.782-8.77-10.782-2.75 0-4.89 1.048-6.11 2.663h-.09V60.19h-7.9v24.27zm7.9-5.458c0-.35.045-.698.09-1.047.26-1.528 1.57-2.663 3.098-2.663 2.62 0 3.798 2.183 3.798 5.107 0 3.41-1.484 5.16-3.798 5.16-1.572 0-2.794-1.18-3.1-2.57-.043-.3-.087-.7-.087-1.09v-2.88zM75.43 69.75h-7.9v21.477h7.9V69.75zm-3.93-2.226c2.446 0 4.017-1.66 4.017-3.71-.043-2.183-1.57-3.755-4.016-3.755-2.44 0-4.01 1.57-4.01 3.75 0 2.05 1.53 3.71 3.98 3.71h.05zm6.68-1.79v4.016h-2.663v5.762h2.663v7.508c0 3.274.698 5.37 2.008 6.68 1.135 1.134 3.055 1.964 5.37 1.964 2.007 0 3.753-.262 4.67-.612v-5.98c-.655.175-.96.175-1.877.175-1.92 0-2.48-1.048-2.48-3.58v-6.155h4.46V69.75h-4.46v-6.11l-7.68 2.094z" fill="#231F20" fill-rule="nonzero"/>
</svg>
