<svg xmlns="http://www.w3.org/2000/svg" viewBox="-1 0 549 545">
  <g fill="none" fill-rule="evenodd" stroke="#000" stroke-width=".5">
    <path d="M406.99 155.762s2.19 39.433 11.932 50.293m-12.27-50.012s-44.81 6.153-34.253-50.896c7.01-34.278 0-64.3-47.97-89.487-47.99-25.202-144.6-11.744-153.72-9.974-39.73 4.917-108.66 72.488-20.29 111.22"/>
    <path d="M232.27 61.696c0 4.495-2.696 6.49-9.35 8.54-2.836.872-5.517 2.137-7.37.52 0 0-.604-3.37-.464-7.023.057-1.405 7.764-2.248 17.183-2.107v.07z"/>
    <path d="M240.482 62.483c.14.562-5.686-1.152-13.337-1.152-7.608 0-10.22 1.89-12.143 2.25M184.54 98.25s-.52 18.853 14.74 18.333c15.244-.42 17.04-17.56 17.04-17.56m-17.294 17.827s10.177 3.792 11.722 10.633c1.543 6.856 18.32 17.757 36.12 15.776 17.828-2 34.154-1.03 44.023-23.16m-16.28-17.84s4.82 20.14 21.34 17.58c16.54-2.57 21.09-8.4 23.14-14.47"/>
    <path d="M256.022 82.234c-9.153-5.577-17.548 1.728-17.548 1.728M232.86 98.01s-6.936 23.6 8.38 24.585c15.3.983 17.548-22.477 18.067-27.535"/>
    <path d="M255.825 85.9c0-8.063 6.528-14.58 14.572-14.58 8.058 0 14.6 6.46 14.6 14.468s-6.542 14.61-14.6 14.61c-8.044 0-14.572-6.602-14.572-14.61v.113zm-46.747.605c0-8.064 6.528-14.61 14.572-14.61 8.058 0 14.6 6.546 14.6 14.61 0 8.05-6.542 14.568-14.6 14.568-8.044 0-14.572-6.518-14.572-14.582v.02zM450.76 270.592l-24.82 37.888-11.37 14.61s-4.576 5.478-11.413 11.94c-11.792 8.29-19.092 29.22-29.48 35.542-10.39 7.305-19.373 22.758-13.196 35.12 5.48 10.958 29.2 18.685 29.2 18.685s31.03 16.857 49.14 20.51c15.02 5.48 27.24 10.255 40.57 14.19 47.87 16.856 45.07 24.442 64.72 36.243 6.74 16.155 2.53 14.89-4.63 26.69-9.54 9.133-18.67 9.975-34.11 13.206-15.72-1.545-20.35-2.107-25.97-3.652-5.47-1.545-28.78-8.71-46.18-13.346-17.26-4.776-19.51-8.99-32.57-14.89-17.26-7.727-37.76-17.7-51.38-20.933-18.11-3.652-25.69-9.833-30.04-12.22-7.3-4.075-5.89-30.907-19.93-44.113-11.79-9.13-16.56-11.52-26.81-21.774-20.07-4.074-36.21 3.09-43.23 5.48-11.79 19.104 7.72 31.045 17.83 38.77 13.2 16.438 3.65 27.395-1.26 30.486-13.195 6.884-35.94 16.015-43.66 22.336-17.265 6.463-45.482 27.535-54.045 28.237-8.57.843-39.59 3.23-49.98 5.48-10.95 3.23-25.97 8.71-39.17 8.71-7.3.982-9.97 0-32.29-2.67-45.482-5.48-22.32-38.633-3.65-46.5 35.52-11.38 52.364-16.436 68.228-20.51 12.776-.843 15.02-8.71 39.448-9.553 9.548-3.512 18.53-7.586 24.288-11.94 17.27-3.09 13.76-37.79-11.79-46.5-14.74-4.917-50.4-33.996-60.085-40.88l-39.31-26.27c30.32 16.015 81.42 29.923 87.74 29.923 7.16 0 47.024 17.138 69.064-45.095 9.264 41.302 28.356 68.836 73 60.688 25.97 9.974 97.423-36.947 130.694-61.53 15.72-13.628 36.36-36.386 47.17-51.417l-.69-.94z"/>
    <path d="M43.06 338.08l-9.502-4.665c-22.462-14.132-6.135-47.567.617-59.353m423.62-14.89l-7.02 11.518m-36.415-7.53c-25.27 15.875-84.65 45.727-180.252 51.374m-78.193-1.405c-2.527-.43-4.492-.71-6.88-1.16-31.585-6.04-58.68-16.34-68.646-20.4m38.33-43.53c10.1 3.51 24.92 8.22 41.97 12.14m72.76 7.02c2.58-.17 5.15-.42 7.69-.75 69.49-3.8 124.52-25.43 150.63-37.65"/>
    <path d="M185.55 255.012s-22.784-6.18-26.392 9.202c-3.594 15.41-4.043 43.732-4.043 43.732s-.786 11.35 15.947 13.15c16.748 1.685 51.45 2.246 51.45 2.246s13.702 1.405 10.894-12.783c-2.807-14.19-2.807-17.28-1.825-23.32.85-6.05 1.83-19.67 1.83-19.67s3.37-13.21-11.51-12.36c-15.02.84-36.36-.57-36.36-.57l.02.36zm79.78-185.365c-2.836.87-5.518 2.135-7.37.52 0 0-.38-3.442-.24-7.165 1.932-.405 4.633-2.978 17.127-2.19-.014 4.48-2.863 6.784-9.518 8.835z"/>
    <path d="M257.426 62.974c.702-7.375 6.177-15.41 13.813-15.41 7.63 0 11.75 7.5 11.65 14.33.14.56-5.67-1.153-13.31-1.153-7.64 0-8.85 1.62-12.16 2.25v-.01zm-25.873-36.258c-3.27 0-11.722 1.798-14.74 7.122-3.004 5.34-4.857 8.57-2.302 11.24 2.57 2.81 6.67 4.354 10.95-.703 4.3-5.058 4.55-10.115 7.37-11.24 2.81-.982 11.42-7.023-1.26-6.32l-.01-.1zm50.93 4.805s-7.37-4.29-11.72-4.29c-4.353 0-8.2 4.82-4.633 7.9 3.607 3.09 9.686 7.87 10.71 8.66 1.026.76 5.574 5.26 7.118 4.56 1.544-.7 7.693-6.67 5.377-9.17-2.302-2.53-6.85-7.73-6.85-7.73v.1zm-65.98 42.2c-.98-2.38-1.5-5.11-1.5-8 0-9.69 6.176-17.56 13.827-17.56 7.623 0 11.652 7.87 11.652 17.56 0 5.62-1.348 10.64-3.96 13.85" stroke-linejoin="round"/>
    <path d="M187.796 265.085s-12.522-4.355-14.502 6.504c-1.965 10.85-2.218 30.85-2.218 30.85s-.56 8 8.704 9.41c9.125 1.26 28.217 1.68 28.217 1.68s7.44 1.12 5.896-8.99c-1.544-9.98-1.544-12.23-.983-16.44.422-4.22.983-13.77.983-13.77s1.825-9.28-6.317-8.57c-8.283.7-20.075-.42-20.075-.42l.3-.27zm-130.528-96.51s-47.14 22.532-47.14 67.374c1.516 18.96 11.23 31.8 22.67 40.45m38.887-47.18c-4.07-8.61-7.16-18.64-2.807-23.84 3.79-4.55 11.51-10.37 18.95-15.43"/>
    <path d="M77.736 225.905c-27.304 10.002-43.238 46.977-43.238 46.977s-7.3 24.514-2.358 33.153c1.446 6.42 5.475 8.218 10.107 9.553 6.74 2.71 8.634 21.03 19.99 17.883 11.344-3.16 7.75-3.7 7.75-3.7s4.94 3.15 10.444.45c5.51-2.69 1.8-9.9-.44-14.05-2.24-4.16-3.59-11.01-1.35-18.77 2.25-7.2 3.15-32.73 11.8-39.12 10.9-10.45 26.96-11.8 28.75-9.55 1.8 2.25-14.15-32.82-41.44-22.81zM53.14 277.28s-16.283 23.71-10.906 38.32m28.216-41.37l-9.56 25.526s-6.4 7.726-.45 15.396c3.145 7.305 9.996 15.06 9.996 15.06m356.01-261.506l-6.766-20.79s-4.408-17.56 4.633-20.764c9.07-3.203 8.816 8.5 12.662 14.497 3.285 5.11 9.462 20.65 12.214 26.36" stroke-linejoin="round"/>
    <path d="M459.324 155.34s13.856-45.262 1.193-60.167c-.8-2.81 6.655-16.507-11.44-27.563-25.943-.42-29.804 2.388-33.412 4.397-7.44 2.248-12.887 7.446-12.887 7.446s-24.75-6.238-9.827 35.823c3.04 2.67-1.61 15.733 9.44 29.416 4.64 2.81 4.64 11.464 4.64 11.464m-15.95-46.444s2.67 7.825 7.72 8.626m7.44 30.344s11.07 1.068 12.26 3.47M403.19 79.86s-12.073 13.458-.393 25.174c0-11.52 25.16-28.798 40.43-20.23m-40.29 19.683s-3.844 12.502 9.857 15.312m21-20.66s-21.945.28-20.75 21.15c3.06 9.45 9.26 11.29 14.11 7.44 3.83-3.04 5.275-12.9 3.42-14.5.42 3.2 8.004 10.67 15.444 2"/>
    <path d="M458.875 153.023c9.21 16.324 9.32 22.898 13.59 49.843 4.267 26.972-12.046 60.59-24.428 60.04-12.353-.56-9.616-.66-22.096 1.547-12.49 2.177-17.85-5.48-19.51-8.668-1.61-3.175-24.28-35.5-22.64-52.37 1.69-16.86 15.16-37.903 15.16-37.903l7.58-9.202s29.76 17.28 52.51-3.37" stroke-linejoin="round"/>
    <path d="M136.276 135.56c-15.02.113-65.643 2.77-78.98 32.79 20.075 8.007 37.342 30.343 54.005 38.042 8.43 9.3 2.67 5.226 11.38 8.33 6.32-1.587-.14 6.14 4.64 9.3 4.78 3.09 1.55-.42 7.02 3.934 2.53 7.867 11.09 4.636 17.69 8.57 6.18 3.792 6.32 7.585 15.02 11.097 9.55 3.23 12.64-1.405 20.64-1.124 7.16.14 14.74 4.77 21.2 8.71 1.69.98 9.13-.43 10.53.42 3.79 1.12 6.18-.85 10.53 1.12 2.39.98 4.91-1.13 6.6-1.69 1.97-.43.98.42 3.23 2.1 7.02.98 8.98.28 12.49-.71 3.37-.42.84 3.23 5.62 4.91 4.78 1.54 6.88-2.95 12.36-5.34 5.478-2.39.7 3.23 9.268 3.23s5.893-2.11 12.91-6.04c1.68-.99 3.79 3.79 10.108 3.09 1.824-.28 4.21-1.41 9.685-3.09 1.966-.71 9.83 1.26 16.286-.42 6.598-1.69 30.46-24.59 39.167-25.15 8.288-4.22 13.34-8.43 17.69-14.19M266.13 14.15c-42.396-2.692-77.492-1.12-83.388 0-46.326 7-93.354 55.63-14.543 87.94m91.89-26.59c-1.69-2.91-2.67-6.49-2.67-10.37 0-9.83 6.17-17.7 13.81-17.7 7.63 0 11.65 7.87 11.65 17.56 0 4.078-.7 7.73-2.05 10.68"/>
    <path d="M148.7 118.816c-6.29 6.532-19.88 22.898-18.742 42.734 3.51 4.776 6.037-.94 6.037-.94s-9.967 37.226 6.415 52.258c4.843 4.425 8.34 2.19 10.248 5.38 4.212 7.067 5.152 8.99 5.152 8.99s8.34-1.29 22.46-1.29c.633 5.168-8.31 8.638-3.578 12.558 4.632 3.933 18.81.955 18.81.955s12.916 1.59 17.55 3.17c7.58 1.27 15.3-6.11 15.3-6.11s1.545 6.74 6.458 6.74c14.46-5.05 27.936.96 30.604.96 3.79-1.58 16.424-6.74 22.742-6.74 6.317 0 10.528 1.04 22.04-5.08 6.878-5.71 13.336-18.89 14.88-17.61 4.773-1.59 4.212 8.96 3.79 8.64 7.722-1.89 10.53-25.31 10.53-25.31s8-21.52 14.178-1.91c5.334.32 10.53-31.56 5.054-37.87-.562-1.545-1.544-3.372-2.808-5.06"/>
    <path d="M356.536 153.12c-4.268-6.94-14.544-16.154-24.146-27.772-2.02-6.18-2.527-10.958-3.172-16.352-2.668-4.074-4.072-4.917-7.385-10.255-7.82-12.64-2.526-15.31-5.475-37.79-9.602-21.77-11.72-26.55-31.347-41.3-3.48-1.26-19.16-7.3-32.99-5.33-29 4.08-48.43 18.69-58.65 42.71-8.84 43.27-43.05 60.27-43.05 60.27s-.05.28-2.52 2.81c0 0-11.28 54.65 45.09 70.66 16.85.99 21 1.83 26.4 0 5.44-1.82 10.36-9.13 31.83 6.89 36.36 10.12 43.66.42 59.52-3.09 20.92-4.63 46.47-40.18 45.77-40.88l.16-.55z"/>
  </g>
</svg>
